<svg xmlns="http://www.w3.org/2000/svg" width="500" height="800" viewBox="0 0 500 800"><g transform="translate(221 445)"><path d="M-23-12H23L20 131L17 270H-17L-20 131Z" fill="#344454" opacity="1"/><path d="M-18 265H17L22 279L41 289H-22Z" fill="#242d36" opacity="1"/></g><g transform="translate(279 445)"><path d="M-23-12H23L20 131L17 270H-17L-20 131Z" fill="#344454" opacity="1"/><path d="M-18 265H17L22 279L41 289H-22Z" fill="#242d36" opacity="1"/></g><g transform="translate(193 295)"><path d="M-13 43H13L11 170L15 184L10 199L3 194L-5 206L-12 192Z" fill="#CFA17E" opacity="1"/><path d="M-18-18Q0-27 18-16L17 68H-17Z" fill="#438F98" opacity="1"/></g><g transform="translate(307 295)"><path d="M-13 43H13L11 170L15 184L10 199L3 194L-5 206L-12 192Z" fill="#CFA17E" opacity="1"/><path d="M-18-18Q0-27 18-16L17 68H-17Z" fill="#438F98" opacity="1"/></g><g transform="translate(250 278)"><path d="M-30-22L-62 -12L-58 44L-52 96L-54 160Q0 169 54 160L52 96L58 44L62 -12L30-22Z" fill="#438F98" opacity="1"/><path d="M-19-48H19L22-20L0 4L-22-20Z" fill="#CFA17E" opacity="1"/><path d="M-22-23L0 2L-15 21L-34-18ZM22-23L0 2L15 21L34-18Z" fill="#CEE1DF" opacity="1"/><path d="M-2 20H2V160H-2Z" fill="#ffffff" opacity="0.1450980392156863"/><g transform="translate(0 58)"><path d="M-44-43L-36 36L-42 87L-48 84L-46 9ZM40-45L46 9L44 84L38 87L33 39Z" fill="#0b2332" opacity="0.12549019607843137"/></g></g><g transform="translate(250 152) rotate(-2)"><ellipse cx="-63" cy="21" rx="13" ry="23" fill="#CFA17E"/><ellipse cx="63" cy="21" rx="13" ry="23" fill="#CFA17E"/><path d="M-60-34Q-58-74 0-74Q58-72 60-33L57 44Q49 77 8 91Q-36 88-51 57Z" fill="#CFA17E" opacity="1"/><path d="M-62 17L-68-35Q-72-60-52-67Q-52-85-27-80Q-4-104 25-83Q47-86 63-70L76-72L66-56L73-51L64-27L58 15L48-5L45-42Q7-32-30-49L-47-40L-49 0Z" fill="#3D302C" opacity="1"/><path d="M-44-65Q-18-86 14-68Q-15-78-44-58Z" fill="#94705A" opacity="1"/><g transform="translate(-25.5 17.5) scale(1 0.91)"><ellipse rx="17" ry="10" fill="#fcf9f4"/><ellipse cx="3" rx="7" ry="8" fill="#58616a"/><ellipse cx="4" rx="3.7" ry="5" fill="#242d36"/><circle cx="5" cy="-3" r="2" fill="white"/><path d="M-18-2Q-1-15 17-3Q0-9-18 1Z" fill="#3D302C" opacity="1"/></g><g transform="translate(31.5 17.5) scale(1 0.91)"><ellipse rx="17" ry="10" fill="#fcf9f4"/><ellipse cx="3" rx="7" ry="8" fill="#58616a"/><ellipse cx="4" rx="3.7" ry="5" fill="#242d36"/><circle cx="5" cy="-3" r="2" fill="white"/><path d="M-18-2Q-1-15 17-3Q0-9-18 1Z" fill="#3D302C" opacity="1"/></g><g transform="translate(0 -5)"><path d="M-44-3Q-26-15-11-3L-12 1Q-28-6-43 2Z" fill="#3D302C" opacity="1"/></g><path d="M16-5Q32-14 47-2L46 3Q31-6 17 0Z" fill="#3D302C" opacity="1"/><path d="M8 21L4 42Q5 48 17 43Q13 53 3 48Q-2 46 0 40Z" fill="#000000" opacity="0.12941176470588237"/><g transform="translate(7 65) rotate(-7) scale(1 1)"><path d="M-24-3Q0 5 24-6Q17 11 0 10Q-16 9-24-3Z" fill="#65443E" opacity="1"/><path d="M-18-1Q2 4 19-3L16 1Q0 7-15 2Z" fill="#FFF8EE" opacity="1"/></g><path d="M38 32L52 26L47 52L27 65L38 48Z" fill="#0d2634" opacity="0.19607843137254902"/><path d="M-49 45L-37 70L-13 83L-29 79L-46 62Z" fill="#0b2534" opacity="0.13725490196078433"/><path d="M13 14Q31 4 49 13L49 17Q29 10 13 18Z" fill="#3d302c" opacity="1"/><path d="M-43 13Q-28 4-11 13L-11 17Q-28 11-43 17Z" fill="#3d302c" opacity="1"/><path d="M19 30Q34 33 45 27" fill="none" stroke="#0d2634" stroke-width="1.6" stroke-linecap="round" opacity="0.3333333333333333"/><path d="M29 62Q35 59 35 54" fill="none" stroke="#342c2c" stroke-width="1.5" stroke-linecap="round" opacity="0.3333333333333333"/><path d="M-42-44Q-13-61 28-44Q6-48-12-42Q-27-36-42-36Z" fill="#94705a" opacity="1"/></g></svg>